# Tiled2Unity generated file. Do not modify by hand.
# Wavefront file for 'mapajavi_mesh_0008.obj'

# Vertices (Count = 16)
v -15.36 -3.84 0
v -16.64 -3.84 0
v -16.64 -2.91 0
v -15.36 -2.91 0
v -10.24 -6.4 0
v -11.52 -6.4 0
v -11.52 -5.47 0
v -10.24 -5.47 0
v -19.2 -8.96 0
v -20.48 -8.96 0
v -20.48 -8.03 0
v -19.2 -8.03 0
v -10.24 -11.52 0
v -11.52 -11.52 0
v -11.52 -10.59 0
v -10.24 -10.59 0

# Texture cooridinates (Count = 4)
vt 0 0
vt 1 0
vt 1 1
vt 0 1

# Normal
vn 0 0 -1

# Mesh description
g mapajavi_mesh_0008

# Faces
f 1/1/1 2/2/1 3/3/1 4/4/1
f 5/1/1 6/2/1 7/3/1 8/4/1
f 9/1/1 10/2/1 11/3/1 12/4/1
f 13/1/1 14/2/1 15/3/1 16/4/1

