# Tiled2Unity generated file. Do not modify by hand.
# Wavefront file for 'mapajavi_mesh_0002.obj'

# Vertices (Count = 8)
v -28.44444 -7.111111 0
v -29.25556 -7.111111 0
v -29.25556 -6.588889 0
v -28.44444 -6.588889 0
v -11.37778 -11.37778 0
v -12.18889 -11.37778 0
v -12.18889 -10.85556 0
v -11.37778 -10.85556 0

# Texture cooridinates (Count = 4)
vt 0 0
vt 1 0
vt 1 1
vt 0 1

# Normal
vn 0 0 -1

# Mesh description
g mapajavi_mesh_0002

# Faces
f 1/1/1 2/2/1 3/3/1 4/4/1
f 5/1/1 6/2/1 7/3/1 8/4/1

